<?xml version="1.0" encoding="UTF-8" standalone="no"?>
<!-- Created with Inkscape (http://www.inkscape.org/) -->

<svg
   xmlns:dc="http://purl.org/dc/elements/1.1/"
   xmlns:cc="http://creativecommons.org/ns#"
   xmlns:rdf="http://www.w3.org/1999/02/22-rdf-syntax-ns#"
   xmlns:svg="http://www.w3.org/2000/svg"
   xmlns="http://www.w3.org/2000/svg"
   xmlns:sodipodi="http://sodipodi.sourceforge.net/DTD/sodipodi-0.dtd"
   xmlns:inkscape="http://www.inkscape.org/namespaces/inkscape"
   version="1.1"
   id="svg2"
   xml:space="preserve"
   width="220.93335"
   height="247.26355"
   viewBox="0 0 220.93335 247.26355"
   sodipodi:docname="connection.svg"
   inkscape:version="0.92.3 (2405546, 2018-03-11)"><metadata
     id="metadata8"><rdf:RDF><cc:Work
         rdf:about=""><dc:format>image/svg+xml</dc:format><dc:type
           rdf:resource="http://purl.org/dc/dcmitype/StillImage" /><dc:title></dc:title></cc:Work></rdf:RDF></metadata><defs
     id="defs6" /><sodipodi:namedview
     pagecolor="#ffffff"
     bordercolor="#666666"
     borderopacity="1"
     objecttolerance="10"
     gridtolerance="10"
     guidetolerance="10"
     inkscape:pageopacity="0"
     inkscape:pageshadow="2"
     inkscape:window-width="812"
     inkscape:window-height="480"
     id="namedview4"
     showgrid="false"
     inkscape:zoom="0.95444719"
     inkscape:cx="-10.021919"
     inkscape:cy="123.63177"
     inkscape:window-x="0"
     inkscape:window-y="25"
     inkscape:window-maximized="0"
     inkscape:current-layer="g10" /><g
     id="g10"
     inkscape:groupmode="layer"
     inkscape:label="connection"
     transform="matrix(1.3333333,0,0,1.3333333,0,6.8482554e-6)"><g
       id="g12"><g
         id="g14"><path
           d="m 0.352,22.852 h 67.5 v 146.25 h -67.5 z"
           style="fill:#ffffff;fill-opacity:1;fill-rule:nonzero;stroke:#000000;stroke-width:0.69999999;stroke-linecap:square;stroke-linejoin:miter;stroke-miterlimit:4;stroke-dasharray:none;stroke-opacity:1"
           id="path16"
           inkscape:connector-curvature="0" /></g><text
         transform="translate(34.119539,34.100011)"
         style="font-variant:normal;font-weight:normal;font-size:10px;font-family:FreeMono;-inkscape-font-specification:FreeMono;writing-mode:lr-tb;fill:#000000;fill-opacity:1;fill-rule:nonzero;stroke:none"
         id="text42"><tspan
           x="0 6 12 18 24"
           y="0"
           sodipodi:role="line"
           id="tspan18">RST_I</tspan><tspan
           x="0 6 12 18 24"
           y="11.25"
           sodipodi:role="line"
           id="tspan20">CLK_I</tspan><tspan
           x="-8.2421904 -2.2421899 3.7578101 9.7578096 15.75781 21.757811 27.757811"
           y="22.5"
           sodipodi:role="line"
           id="tspan22">ADR_O()</tspan><tspan
           x="-8.2421904 -2.2421899 3.7578101 9.7578096 15.75781 21.757811 27.757811"
           y="33.75"
           sodipodi:role="line"
           id="tspan24">DAT_I()</tspan><tspan
           x="-8.2421904 -2.2421899 3.7578101 9.7578096 15.75781 21.757811 27.757811"
           y="48.75"
           sodipodi:role="line"
           id="tspan26">DAT_O()</tspan><tspan
           x="5.9960999 11.9961 17.996099 23.996099"
           y="60"
           sodipodi:role="line"
           id="tspan28">WE_O</tspan><tspan
           x="-8.2421904 -2.2421899 3.7578101 9.7578096 15.75781 21.757811 27.757811"
           y="71.25"
           sodipodi:role="line"
           id="tspan30">SEL_O()</tspan><tspan
           x="0 6 12 18 24"
           y="93.75"
           sodipodi:role="line"
           id="tspan32">STB_O</tspan><tspan
           x="0 6 12 18 24"
           y="105"
           sodipodi:role="line"
           id="tspan34">ACK_I</tspan><tspan
           x="0.200003 6.2000031 12.200003 18.200003 24.200003"
           y="82.5"
           sodipodi:role="line"
           id="tspan36">CYC_O</tspan><tspan
           x="-5.9960971 0.0039029999 6.0039029 12.003903 18.003902 24.003902"
           y="116.25"
           sodipodi:role="line"
           id="tspan38">TAGN_O</tspan><tspan
           x="-5.9960971 0.0039029999 6.0039029 12.003903 18.003902 24.003902"
           y="127.5"
           sodipodi:role="line"
           id="tspan40">TAGN_I</tspan></text>
<text
         transform="rotate(-90,78.422513,66.822513)"
         style="font-variant:normal;font-weight:normal;font-size:10px;font-family:Arimo;-inkscape-font-specification:Arimo;writing-mode:lr-tb;fill:#000000;fill-opacity:1;fill-rule:nonzero;stroke:none"
         id="text46"><tspan
           x="0 9.4300003 12.2 18.860001 26.08 32.740002 40.509998 47.73 54.389999 57.16 65.519997 72.18 78.839996 84.940002 91.629997"
           y="0"
           sodipodi:role="line"
           id="tspan44">WISHBONE MASTER</tspan></text>
<g
         id="g48"><path
           d="m 97.852,22.852 h 67.5 v 146.25 h -67.5 z"
           style="fill:#ffffff;fill-opacity:1;fill-rule:nonzero;stroke:#000000;stroke-width:0.69999999;stroke-linecap:square;stroke-linejoin:miter;stroke-miterlimit:4;stroke-dasharray:none;stroke-opacity:1"
           id="path50"
           inkscape:connector-curvature="0" /></g><text
         transform="translate(101.6,34.100011)"
         style="font-variant:normal;font-weight:normal;font-size:10px;font-family:FreeMono;-inkscape-font-specification:FreeMono;writing-mode:lr-tb;fill:#000000;fill-opacity:1;fill-rule:nonzero;stroke:none"
         id="text76"><tspan
           x="0 6 12 18 24"
           y="0"
           sodipodi:role="line"
           id="tspan52">RST_I</tspan><tspan
           x="-0.200003 5.7999969 11.799997 17.799997 23.799997"
           y="11.25"
           sodipodi:role="line"
           id="tspan54">CLK_I</tspan><tspan
           x="0.33999199 6.339992 12.339992 18.339993 24.339993 30.339993 36.339993"
           y="22.5"
           sodipodi:role="line"
           id="tspan56">ADR_I()</tspan><tspan
           x="0 6 12 18 24 30 36"
           y="33.75"
           sodipodi:role="line"
           id="tspan58">DAT_I()</tspan><tspan
           x="0 6 12 18 24 30 36"
           y="48.75"
           sodipodi:role="line"
           id="tspan60">DAT_O()</tspan><tspan
           x="0.22999901 6.2299991 12.229999 18.23"
           y="60"
           sodipodi:role="line"
           id="tspan62">WE_I</tspan><tspan
           x="-0.49001601 5.509984 11.509984 17.509983 23.509983 29.509983 35.509983"
           y="71.25"
           sodipodi:role="line"
           id="tspan64">SEL_I()</tspan><tspan
           x="-0.49001601 5.509984 11.509984 17.509983 23.509983"
           y="93.75"
           sodipodi:role="line"
           id="tspan66">STB_I</tspan><tspan
           x="0.33999199 6.339992 12.339992 18.339993 24.339993"
           y="105"
           sodipodi:role="line"
           id="tspan68">ACK_O</tspan><tspan
           x="0 6 12 18 24"
           y="82.5"
           sodipodi:role="line"
           id="tspan70">CYC_I</tspan><tspan
           x="-0.29001299 5.7099872 11.709987 17.709988 23.709988 29.709988"
           y="116.25"
           sodipodi:role="line"
           id="tspan72">TAGN_I</tspan><tspan
           x="-0.29001299 5.7099872 11.709987 17.709988 23.709988 29.709988"
           y="127.5"
           sodipodi:role="line"
           id="tspan74">TAGN_O</tspan></text>
<g
         id="g78"><path
           d="m 67.852,30.352 h 30"
           style="fill:none;stroke:#000000;stroke-width:0.75;stroke-linecap:butt;stroke-linejoin:miter;stroke-miterlimit:4;stroke-dasharray:none;stroke-opacity:1"
           id="path80"
           inkscape:connector-curvature="0" /></g><g
         id="g82"><path
           d="m 71.773,32.164 -4.918,-1.809 4.918,-1.804 c -0.785,1.066 -0.781,2.527 0,3.613 z"
           style="fill:#000000;fill-opacity:1;fill-rule:evenodd;stroke:#000000;stroke-width:0.28125;stroke-linecap:butt;stroke-linejoin:round;stroke-miterlimit:4;stroke-dasharray:none;stroke-opacity:1"
           id="path84"
           inkscape:connector-curvature="0" /></g><g
         id="g86"
         transform="scale(-1)"><path
           d="m -93.926,-28.535 -4.918,-1.809 4.918,-1.808 c -0.785,1.07 -0.781,2.531 0,3.617 z"
           style="fill:#000000;fill-opacity:1;fill-rule:evenodd;stroke:#000000;stroke-width:0.28125;stroke-linecap:butt;stroke-linejoin:round;stroke-miterlimit:4;stroke-dasharray:none;stroke-opacity:1"
           id="path88"
           inkscape:connector-curvature="0" /></g><g
         id="g90"><path
           d="m 67.852,41.602 h 30"
           style="fill:none;stroke:#000000;stroke-width:0.75;stroke-linecap:butt;stroke-linejoin:miter;stroke-miterlimit:4;stroke-dasharray:none;stroke-opacity:1"
           id="path92"
           inkscape:connector-curvature="0" /></g><g
         id="g94"><path
           d="m 71.773,43.414 -4.918,-1.809 4.918,-1.804 c -0.785,1.066 -0.781,2.527 0,3.613 z"
           style="fill:#000000;fill-opacity:1;fill-rule:evenodd;stroke:#000000;stroke-width:0.28125;stroke-linecap:butt;stroke-linejoin:round;stroke-miterlimit:4;stroke-dasharray:none;stroke-opacity:1"
           id="path96"
           inkscape:connector-curvature="0" /></g><g
         id="g98"
         transform="scale(-1)"><path
           d="m -93.926,-39.785 -4.918,-1.809 4.918,-1.808 c -0.785,1.07 -0.781,2.531 0,3.617 z"
           style="fill:#000000;fill-opacity:1;fill-rule:evenodd;stroke:#000000;stroke-width:0.28125;stroke-linecap:butt;stroke-linejoin:round;stroke-miterlimit:4;stroke-dasharray:none;stroke-opacity:1"
           id="path100"
           inkscape:connector-curvature="0" /></g><g
         id="g102"><path
           d="m 67.852,52.852 h 30"
           style="fill:none;stroke:#000000;stroke-width:0.75;stroke-linecap:butt;stroke-linejoin:miter;stroke-miterlimit:4;stroke-dasharray:none;stroke-opacity:1"
           id="path104"
           inkscape:connector-curvature="0" /></g><g
         id="g106"
         transform="scale(-1)"><path
           d="m -93.926,-51.035 -4.918,-1.809 4.918,-1.808 c -0.785,1.07 -0.781,2.531 0,3.617 z"
           style="fill:#000000;fill-opacity:1;fill-rule:evenodd;stroke:#000000;stroke-width:0.28125;stroke-linecap:butt;stroke-linejoin:round;stroke-miterlimit:4;stroke-dasharray:none;stroke-opacity:1"
           id="path108"
           inkscape:connector-curvature="0" /></g><g
         id="g110"><path
           d="m 97.852,79.102 h -11.25 l -7.5,-15 H 68.984"
           style="fill:none;stroke:#000000;stroke-width:0.75;stroke-linecap:butt;stroke-linejoin:miter;stroke-miterlimit:4;stroke-dasharray:none;stroke-opacity:1"
           id="path112"
           inkscape:connector-curvature="0" /></g><g
         id="g114"><path
           d="m 72.906,65.914 -4.914,-1.809 4.914,-1.804 c -0.785,1.066 -0.781,2.527 0,3.613 z"
           style="fill:#000000;fill-opacity:1;fill-rule:evenodd;stroke:#000000;stroke-width:0.28125;stroke-linecap:butt;stroke-linejoin:round;stroke-miterlimit:4;stroke-dasharray:none;stroke-opacity:1"
           id="path116"
           inkscape:connector-curvature="0" /></g><g
         id="g118"><path
           d="m 67.852,79.102 h 11.25 l 7.5,-15 h 11.25"
           style="fill:none;stroke:#000000;stroke-width:0.75;stroke-linecap:butt;stroke-linejoin:miter;stroke-miterlimit:4;stroke-dasharray:none;stroke-opacity:1"
           id="path120"
           inkscape:connector-curvature="0" /></g><g
         id="g122"
         transform="scale(-1)"><path
           d="m -93.926,-62.285 -4.918,-1.809 4.918,-1.808 c -0.785,1.07 -0.781,2.531 0,3.617 z"
           style="fill:#000000;fill-opacity:1;fill-rule:evenodd;stroke:#000000;stroke-width:0.28125;stroke-linecap:butt;stroke-linejoin:round;stroke-miterlimit:4;stroke-dasharray:none;stroke-opacity:1"
           id="path124"
           inkscape:connector-curvature="0" /></g><g
         id="g126"><path
           d="m 67.852,90.352 h 30"
           style="fill:none;stroke:#000000;stroke-width:0.75;stroke-linecap:butt;stroke-linejoin:miter;stroke-miterlimit:4;stroke-dasharray:none;stroke-opacity:1"
           id="path128"
           inkscape:connector-curvature="0" /></g><g
         id="g130"
         transform="scale(-1)"><path
           d="m -93.926,-88.535 -4.918,-1.809 4.918,-1.808 c -0.785,1.07 -0.781,2.531 0,3.617 z"
           style="fill:#000000;fill-opacity:1;fill-rule:evenodd;stroke:#000000;stroke-width:0.28125;stroke-linecap:butt;stroke-linejoin:round;stroke-miterlimit:4;stroke-dasharray:none;stroke-opacity:1"
           id="path132"
           inkscape:connector-curvature="0" /></g><g
         id="g134"><path
           d="m 67.852,101.602 h 30"
           style="fill:none;stroke:#000000;stroke-width:0.75;stroke-linecap:butt;stroke-linejoin:miter;stroke-miterlimit:4;stroke-dasharray:none;stroke-opacity:1"
           id="path136"
           inkscape:connector-curvature="0" /></g><g
         id="g138"
         transform="scale(-1)"><path
           d="m -93.926,-99.785 -4.918,-1.809 4.918,-1.808 c -0.785,1.07 -0.781,2.531 0,3.617 z"
           style="fill:#000000;fill-opacity:1;fill-rule:evenodd;stroke:#000000;stroke-width:0.28125;stroke-linecap:butt;stroke-linejoin:round;stroke-miterlimit:4;stroke-dasharray:none;stroke-opacity:1"
           id="path140"
           inkscape:connector-curvature="0" /></g><g
         id="g142"><path
           d="m 67.852,124.102 h 30"
           style="fill:none;stroke:#000000;stroke-width:0.75;stroke-linecap:butt;stroke-linejoin:miter;stroke-miterlimit:4;stroke-dasharray:none;stroke-opacity:1"
           id="path144"
           inkscape:connector-curvature="0" /></g><g
         id="g146"
         transform="scale(-1)"><path
           d="m -93.926,-122.285 -4.918,-1.809 4.918,-1.808 c -0.785,1.07 -0.781,2.531 0,3.617 z"
           style="fill:#000000;fill-opacity:1;fill-rule:evenodd;stroke:#000000;stroke-width:0.28125;stroke-linecap:butt;stroke-linejoin:round;stroke-miterlimit:4;stroke-dasharray:none;stroke-opacity:1"
           id="path148"
           inkscape:connector-curvature="0" /></g><g
         id="g150"><path
           d="m 98.984,135.352 h -30"
           style="fill:none;stroke:#000000;stroke-width:0.75;stroke-linecap:butt;stroke-linejoin:miter;stroke-miterlimit:4;stroke-dasharray:none;stroke-opacity:1"
           id="path152"
           inkscape:connector-curvature="0" /></g><g
         id="g154"><path
           d="m 72.906,137.164 -4.914,-1.809 4.914,-1.804 c -0.785,1.066 -0.781,2.527 0,3.613 z"
           style="fill:#000000;fill-opacity:1;fill-rule:evenodd;stroke:#000000;stroke-width:0.28125;stroke-linecap:butt;stroke-linejoin:round;stroke-miterlimit:4;stroke-dasharray:none;stroke-opacity:1"
           id="path156"
           inkscape:connector-curvature="0" /></g><g
         id="g158"><path
           d="m 68.051,112.852 h 30"
           style="fill:none;stroke:#000000;stroke-width:0.75;stroke-linecap:butt;stroke-linejoin:miter;stroke-miterlimit:4;stroke-dasharray:none;stroke-opacity:1"
           id="path160"
           inkscape:connector-curvature="0" /></g><g
         id="g162"
         transform="scale(-1)"><path
           d="m -94.125,-111.035 -4.918,-1.809 4.918,-1.808 c -0.789,1.07 -0.781,2.531 0,3.617 z"
           style="fill:#000000;fill-opacity:1;fill-rule:evenodd;stroke:#000000;stroke-width:0.28125;stroke-linecap:butt;stroke-linejoin:round;stroke-miterlimit:4;stroke-dasharray:none;stroke-opacity:1"
           id="path164"
           inkscape:connector-curvature="0" /></g><g
         id="g166"><path
           d="m 67.852,146.602 h 30"
           style="fill:none;stroke:#000000;stroke-width:0.75;stroke-linecap:butt;stroke-linejoin:miter;stroke-miterlimit:4;stroke-dasharray:none;stroke-opacity:1"
           id="path168"
           inkscape:connector-curvature="0" /></g><g
         id="g170"
         transform="scale(-1)"><path
           d="m -93.926,-144.785 -4.918,-1.809 4.918,-1.808 c -0.785,1.07 -0.781,2.531 0,3.617 z"
           style="fill:#000000;fill-opacity:1;fill-rule:evenodd;stroke:#000000;stroke-width:0.28125;stroke-linecap:butt;stroke-linejoin:round;stroke-miterlimit:4;stroke-dasharray:none;stroke-opacity:1"
           id="path172"
           inkscape:connector-curvature="0" /></g><g
         id="g174"><path
           d="m 98.984,157.852 h -30"
           style="fill:none;stroke:#000000;stroke-width:0.75;stroke-linecap:butt;stroke-linejoin:miter;stroke-miterlimit:4;stroke-dasharray:none;stroke-opacity:1"
           id="path176"
           inkscape:connector-curvature="0" /></g><g
         id="g178"><path
           d="m 72.906,159.664 -4.914,-1.809 4.914,-1.804 c -0.785,1.066 -0.781,2.527 0,3.613 z"
           style="fill:#000000;fill-opacity:1;fill-rule:evenodd;stroke:#000000;stroke-width:0.28125;stroke-linecap:butt;stroke-linejoin:round;stroke-miterlimit:4;stroke-dasharray:none;stroke-opacity:1"
           id="path180"
           inkscape:connector-curvature="0" /></g><text
         transform="rotate(-90,150.88588,-10.714092)"
         style="font-variant:normal;font-weight:normal;font-size:10px;font-family:Arimo;-inkscape-font-specification:Arimo;writing-mode:lr-tb;fill:#000000;fill-opacity:1;fill-rule:nonzero;stroke:none"
         id="text184"><tspan
           x="0 9.4300003 12.2 18.860001 26.08 32.740002 40.509998 47.73 54.389999 57.16 63.849998 69.410004 75.339996 82"
           y="0"
           sodipodi:role="line"
           id="tspan182">WISHBONE SLAVE</tspan></text>
<g
         id="g186"><path
           d="m 60.352,0.352 h 45 v 15 h -45 z"
           style="fill:#ffffff;fill-opacity:1;fill-rule:nonzero;stroke:#000000;stroke-width:0.69999999;stroke-linecap:square;stroke-linejoin:miter;stroke-miterlimit:4;stroke-dasharray:none;stroke-opacity:1"
           id="path188"
           inkscape:connector-curvature="0" /></g><text
         transform="translate(64.589757,10.649996)"
         style="font-variant:normal;font-weight:normal;font-size:10px;font-family:FreeMono;-inkscape-font-specification:FreeMono;writing-mode:lr-tb;fill:#000000;fill-opacity:1;fill-rule:nonzero;stroke:none"
         id="text192"><tspan
           x="0 6 12 18 24 30"
           y="0"
           sodipodi:role="line"
           id="tspan190">SYSCON</tspan></text>
<g
         id="g194"><path
           d="m 79.102,15.352 v 15"
           style="fill:none;stroke:#000000;stroke-width:0.75;stroke-linecap:butt;stroke-linejoin:miter;stroke-miterlimit:4;stroke-dasharray:none;stroke-opacity:1"
           id="path196"
           inkscape:connector-curvature="0" /></g><g
         id="g198"
         transform="rotate(90)"><path
           d="m 31.82,-79.102 c 0,0.829 -0.672,1.5 -1.5,1.5 -0.828,0 -1.5,-0.671 -1.5,-1.5 0,-0.828 0.672,-1.5 1.5,-1.5 0.828,0 1.5,0.672 1.5,1.5 z"
           style="fill:#000000;fill-opacity:1;fill-rule:evenodd;stroke:#000000;stroke-width:0.40000001;stroke-linecap:butt;stroke-linejoin:miter;stroke-miterlimit:4;stroke-dasharray:none;stroke-opacity:1"
           id="path200"
           inkscape:connector-curvature="0" /></g><g
         id="g202"><path
           d="m 86.602,15.352 v 12.75 c 2.25,2.25 2.25,2.25 0,4.5 v 9"
           style="fill:none;stroke:#000000;stroke-width:0.75;stroke-linecap:butt;stroke-linejoin:miter;stroke-miterlimit:4;stroke-dasharray:none;stroke-opacity:1"
           id="path204"
           inkscape:connector-curvature="0" /></g><g
         id="g206"
         transform="rotate(90.000018)"><path
           d="m 43.07,-86.602 c 0,0.829 -0.672,1.5 -1.5,1.5 -0.828,0 -1.5,-0.671 -1.5,-1.5 0,-0.828 0.672,-1.5 1.5,-1.5 0.828,0 1.5,0.672 1.5,1.5 z"
           style="fill:#000000;fill-opacity:1;fill-rule:evenodd;stroke:#000000;stroke-width:0.40000001;stroke-linecap:butt;stroke-linejoin:miter;stroke-miterlimit:4;stroke-dasharray:none;stroke-opacity:1"
           id="path208"
           inkscape:connector-curvature="0" /></g><text
         transform="translate(72.283608,172.85001)"
         style="font-variant:normal;font-weight:normal;font-size:10px;font-family:Arimo;-inkscape-font-specification:Arimo;writing-mode:lr-tb;fill:#000000;fill-opacity:1;fill-rule:nonzero;stroke:none"
         id="text214"><tspan
           x="0 7.2199998 12.22 17.780001"
           y="0"
           sodipodi:role="line"
           id="tspan210">User</tspan><tspan
           x="-6.6796899 0.54031003 6.1003098 8.8703098 11.09031 16.650311 22.21031"
           y="12.5"
           sodipodi:role="line"
           id="tspan212">Defined</tspan></text>
<g
         id="g216"><path
           d="m 101.602,152.227 c 0,5.175 -8.395,9.375 -18.75,9.375 -10.356,0 -18.75,-4.2 -18.75,-9.375 0,-5.18 8.394,-9.375 18.75,-9.375 10.355,0 18.75,4.195 18.75,9.375 z"
           style="fill:none;stroke:#898989;stroke-width:0.69999999;stroke-linecap:square;stroke-linejoin:miter;stroke-miterlimit:4;stroke-dasharray:0.7, 1.4;stroke-dashoffset:0;stroke-opacity:1"
           id="path218"
           inkscape:connector-curvature="0" /></g></g></g></svg>